<svg xmlns="http://www.w3.org/2000/svg" viewBox="0 0 24 24"><path fill="#D0A74F" d="M19 20H4c-1.11 0-2-.89-2-2V6c0-1.11.89-2 2-2h6l2 2h7c1.09 0 2 .89 2 2H4v10l2.14-8h17.07l-2.28 8.5c-.23.87-1.01 1.5-1.93 1.5z"/><g stroke="#00D8FF" stroke-width="0.8" fill="none" transform="translate(1, 2)"><ellipse cx="12.5" cy="13.5" rx="4" ry="1.4" transform="rotate(30 12.5 13.5)"/><ellipse cx="12.5" cy="13.5" rx="4" ry="1.4" transform="rotate(90 12.5 13.5)"/><ellipse cx="12.5" cy="13.5" rx="4" ry="1.4" transform="rotate(150 12.5 13.5)"/><circle cx="12.5" cy="13.5" r="0.8" fill="#00D8FF"/></g></svg>