<svg xmlns="http://www.w3.org/2000/svg" viewBox="0 0 24 24"><path fill="#D0A74F" d="M19 20H4c-1.11 0-2-.89-2-2V6c0-1.11.89-2 2-2h6l2 2h7c1.09 0 2 .89 2 2H4v10l2.14-8h17.07l-2.28 8.5c-.23.87-1.01 1.5-1.93 1.5z"/><g stroke="#FFFFFF" stroke-linecap="round" stroke-linejoin="round" fill="none" transform="translate(1, 2)"><circle cx="12.5" cy="13.5" r="3.5" stroke-width="1.2"/><ellipse cx="12.5" cy="13.5" rx="3.5" ry="1.2" stroke-width="1"/><ellipse cx="12.5" cy="13.5" rx="1.2" ry="3.5" stroke-width="1"/><line x1="9" y1="13.5" x2="16" y2="13.5" stroke-width="1"/><line x1="12.5" y1="10" x2="12.5" y2="17" stroke-width="1"/></g></svg>